# xmcd
#
# Track frame offsets:
# 150
# 14833
# 27003
# 40894
# 59017
# 75691
# 95099
# 112466
# 131087
# 151536
# 169174
# 183208
#
# Disc length: 2675 seconds
#
#
# Revision: 0
# Processed by: cddbd v1.5.1PL0 Copyright (c) Steve Scherf et al.
# Submitted via: FreeRIP 2.53 
#
DISCID=a10a710c
DTITLE=Mojo Buford - blues ain't a color
DYEAR=2005
DGENRE=Blues
TTITLE0=Birdnest on the ground
TTITLE1=In my younger days
TTITLE2=Title 3
TTITLE3=Everythings gonna be alright
TTITLE4=Got my mojo workin'
TTITLE5=Move to the outskirts of town
TTITLE6=Messin' with the kid
TTITLE7=Love strikes like lightning
TTITLE8=Mo's wood
TTITLE9=Dust my broom
TTITLE10=take a little walk with me
TTITLE11=Last night
EXTD=BluesfestRadio.com
EXTT0=
EXTT1=
EXTT2=
EXTT3=
EXTT4=
EXTT5=
EXTT6=
EXTT7=
EXTT8=
EXTT9=
EXTT10=
EXTT11=
PLAYORDER=
